<?xml version="1.0" encoding="utf-8"?>
<svg id="svg3" height="65.6px" width="360px" version="1.1" xmlns="http://www.w3.org/2000/svg" xmlns:bx="https://boxy-svg.com">
  <linearGradient id="color-0" bx:pinned="true">
    <stop style="stop-color: rgb(221, 221, 221);"/>
  </linearGradient>
  <g>
    <path d="M 330.098 42.449 C 329.751 42.813 329.541 43.042 329.32 43.263 C 326.062 46.525 322.808 49.796 319.529 53.038 C 319.071 53.492 319.009 53.732 319.506 54.22 C 322.833 57.498 326.123 60.812 329.422 64.115 C 329.621 64.313 329.809 64.521 330.141 64.874 L 328.314 64.874 C 325.966 64.874 323.615 64.865 321.267 64.883 C 320.832 64.883 320.521 64.761 320.214 64.453 C 316.8 61.019 313.38 57.591 309.942 54.183 C 309.524 53.769 309.491 53.543 309.927 53.108 C 313.369 49.702 316.787 46.271 320.205 42.843 C 320.479 42.57 320.746 42.387 321.168 42.389 C 323.975 42.407 326.784 42.398 329.591 42.4 C 329.697 42.4 329.803 42.419 330.098 42.449" style="fill-opacity: 1; fill-rule: nonzero; stroke: none; stroke-width: 1.33333; display: inline; fill: url(#color-0);" id="path1758-8"/>
    <path d="M 298.084 42.514 C 298.022 42.844 297.724 43.001 297.512 43.212 C 294.238 46.5 290.967 49.792 287.663 53.05 C 287.171 53.536 287.211 53.783 287.677 54.243 C 290.978 57.506 294.251 60.795 297.527 64.08 C 297.737 64.292 298.024 64.453 298.127 64.875 C 296.266 64.875 294.446 64.875 292.625 64.875 C 291.364 64.875 289.959 65.205 288.885 64.753 C 287.782 64.288 286.996 63.059 286.086 62.151 C 283.429 59.503 280.789 56.835 278.114 54.204 C 277.662 53.761 277.633 53.539 278.101 53.077 C 281.527 49.698 284.922 46.286 288.32 42.878 C 288.614 42.584 288.894 42.384 289.35 42.387 C 292.128 42.409 294.907 42.397 297.686 42.402 C 297.817 42.402 297.975 42.349 298.084 42.515" style="fill-opacity: 1; fill-rule: nonzero; stroke: none; stroke-width: 1.33333; display: inline; fill: url(#color-0);" id="path1766"/>
    <path d="M 314.072 64.875 C 311.064 64.875 308.142 64.865 305.22 64.884 C 304.833 64.884 304.583 64.73 304.329 64.475 C 300.869 61.006 297.412 57.535 293.929 54.089 C 293.522 53.686 293.624 53.499 293.967 53.157 C 297.424 49.725 300.864 46.277 304.305 42.83 C 304.554 42.582 304.79 42.388 305.183 42.39 C 308.05 42.405 310.915 42.4 313.78 42.403 C 313.853 42.403 313.928 42.447 314.017 42.473 C 313.948 42.841 313.648 42.994 313.438 43.206 C 310.162 46.494 306.89 49.786 303.586 53.044 C 303.098 53.523 303.119 53.764 303.59 54.23 C 306.893 57.491 310.166 60.782 313.442 64.07 C 313.656 64.284 313.94 64.448 314.072 64.876" style="fill-opacity: 1; fill-rule: nonzero; stroke: none; stroke-width: 1.33333; display: inline; fill: url(#color-0);" id="path1774"/>
    <path d="M 258.01 53.359 C 258.01 49.777 258.025 46.195 257.997 42.614 C 257.992 41.986 258.145 41.775 258.806 41.78 C 262.961 41.809 267.117 41.806 271.272 41.78 C 271.87 41.78 272.1 41.944 272.039 42.551 C 271.945 43.482 272.436 44.694 271.844 45.277 C 271.298 45.813 270.1 45.417 269.19 45.427 C 267.155 45.445 265.119 45.464 263.086 45.415 C 262.383 45.397 262.227 45.629 262.245 46.285 C 262.291 47.801 262.287 49.323 262.246 50.84 C 262.233 51.413 262.419 51.578 262.973 51.571 C 265.094 51.546 267.214 51.583 269.334 51.548 C 269.962 51.537 270.215 51.692 270.161 52.359 C 270.102 53.071 270.114 53.792 270.157 54.507 C 270.192 55.069 270.007 55.246 269.439 55.238 C 267.348 55.208 265.254 55.253 263.163 55.211 C 262.476 55.196 262.211 55.337 262.241 56.09 C 262.304 57.635 262.288 59.184 262.246 60.73 C 262.23 61.344 262.435 61.498 263.023 61.493 C 265.918 61.467 268.813 61.502 271.707 61.466 C 272.38 61.457 272.63 61.636 272.567 62.325 C 272.508 62.979 272.514 63.645 272.566 64.301 C 272.618 64.959 272.426 65.185 271.725 65.18 C 267.456 65.148 263.185 65.15 258.915 65.18 C 258.213 65.189 257.986 65.003 257.993 64.276 C 258.029 60.636 258.01 56.997 258.01 53.357" style="fill-opacity: 1; fill-rule: nonzero; stroke: none; stroke-width: 1.33333; display: inline; fill: url(#color-0);" id="path1786"/>
    <path d="M 244.365 65.569 C 243.536 65.375 242.692 65.228 241.879 64.978 C 237.336 63.585 234.207 59.668 233.726 54.814 C 233.105 48.551 236.694 43.192 242.587 41.771 C 246.549 40.816 250.256 41.516 253.593 43.937 C 254.138 44.332 254.364 44.685 253.851 45.309 C 253.382 45.879 252.999 46.529 252.637 47.18 C 252.37 47.658 252.17 47.657 251.741 47.338 C 249.999 46.039 248.053 45.277 245.849 45.272 C 240.816 45.261 237.67 49.23 238.079 54.055 C 238.422 58.111 240.854 60.92 244.484 61.537 C 247.382 62.027 249.922 61.094 252.11 59.21 C 252.636 58.758 252.848 58.828 253.182 59.352 C 253.597 60.004 254.053 60.635 254.553 61.223 C 254.928 61.663 254.829 61.93 254.437 62.273 C 252.513 63.962 250.294 65.007 247.766 65.398 C 247.543 65.432 247.302 65.398 247.116 65.569 Z" style="fill-opacity: 1; fill-rule: nonzero; stroke: none; stroke-width: 1.33333; display: inline; fill: url(#color-0);" id="path1710"/>
    <path d="M 225.976 58.551 C 225.814 53.297 226.039 48.058 225.942 42.821 C 225.927 42.014 226.094 41.693 226.957 41.777 C 227.808 41.861 228.674 41.817 229.534 41.787 C 230.019 41.769 230.19 41.942 230.175 42.427 C 230.149 43.371 230.168 44.317 230.168 45.262 C 230.168 51.565 230.155 57.868 230.184 64.172 C 230.188 64.942 230.008 65.247 229.192 65.184 C 228.14 65.102 226.94 65.437 226.06 65.035 C 225.171 64.628 224.807 63.392 224.224 62.513 C 222.057 59.243 219.915 55.957 217.748 52.688 C 216.83 51.306 216.014 49.868 215.303 48.369 C 215.054 48.447 215.139 48.615 215.146 48.729 C 215.508 53.965 215.217 59.211 215.325 64.451 C 215.338 65.023 215.159 65.2 214.6 65.178 C 213.656 65.14 212.709 65.147 211.764 65.178 C 211.262 65.192 211.054 65.049 211.056 64.504 C 211.069 57.142 211.069 49.778 211.057 42.414 C 211.056 41.909 211.255 41.78 211.718 41.791 C 212.749 41.816 213.78 41.808 214.812 41.791 C 215.155 41.781 215.397 41.873 215.595 42.183 C 218.762 47.157 222.183 51.966 225.186 57.045 C 225.475 57.534 225.714 58.049 225.976 58.551" style="fill-opacity: 1; fill-rule: nonzero; stroke: none; stroke-width: 1.33333; display: inline; fill: url(#color-0);" id="path1718"/>
    <path d="M 192.954 53.532 C 192.954 49.92 192.971 46.311 192.938 42.701 C 192.931 42.015 193.068 41.769 193.815 41.777 C 197.912 41.815 202.01 41.811 206.108 41.777 C 206.789 41.768 207.034 41.97 206.96 42.643 C 206.86 43.543 207.35 44.714 206.755 45.28 C 206.208 45.801 205.061 45.419 204.179 45.428 C 202.088 45.446 199.995 45.447 197.904 45.419 C 197.401 45.409 197.197 45.522 197.209 46.078 C 197.245 47.682 197.241 49.287 197.21 50.89 C 197.2 51.432 197.395 51.572 197.904 51.567 C 200.024 51.546 202.145 51.581 204.265 51.545 C 204.903 51.534 205.139 51.718 205.092 52.369 C 205.042 53.081 205.052 53.802 205.09 54.515 C 205.12 55.085 204.908 55.242 204.349 55.235 C 202.23 55.205 200.108 55.244 197.988 55.21 C 197.406 55.2 197.189 55.336 197.207 55.961 C 197.25 57.563 197.244 59.17 197.208 60.774 C 197.194 61.351 197.395 61.492 197.942 61.489 C 200.836 61.466 203.73 61.498 206.623 61.463 C 207.285 61.454 207.557 61.619 207.502 62.319 C 207.443 63.061 207.473 63.809 207.493 64.554 C 207.504 64.985 207.36 65.168 206.903 65.167 C 202.434 65.155 197.963 65.151 193.493 65.167 C 192.819 65.167 192.956 64.731 192.956 64.355 C 192.952 60.745 192.953 57.134 192.953 53.524" style="fill-opacity: 1; fill-rule: nonzero; stroke: none; stroke-width: 1.33333; display: inline; fill: url(#color-0);" id="path1794"/>
    <path d="M 187.849 53.437 C 187.849 57.071 187.83 60.706 187.867 64.338 C 187.874 65.056 187.613 65.213 186.972 65.179 C 186.145 65.133 185.312 65.128 184.485 65.179 C 183.822 65.219 183.602 65.021 183.61 64.327 C 183.647 61.208 183.626 58.089 183.626 54.97 C 183.626 50.849 183.639 46.729 183.614 42.608 C 183.61 41.991 183.741 41.735 184.411 41.779 C 185.293 41.838 186.186 41.839 187.07 41.779 C 187.754 41.732 187.865 42.014 187.862 42.619 C 187.837 46.225 187.849 49.83 187.849 53.436" style="fill-opacity: 1; fill-rule: nonzero; stroke: none; stroke-width: 1.33333; display: inline; fill: url(#color-0);" id="path1830"/>
    <path d="M 167.009 49.049 C 167.009 50.081 167.018 51.112 167.005 52.142 C 167 52.516 167.085 52.74 167.52 52.73 C 168.894 52.701 170.276 52.771 171.641 52.652 C 173.358 52.502 174.448 51.141 174.531 49.259 C 174.62 47.18 173.779 45.986 171.94 45.601 C 170.465 45.293 168.969 45.497 167.486 45.434 C 167.008 45.412 167.005 45.7 167.007 46.042 C 167.015 47.044 167.01 48.048 167.01 49.049 M 162.779 53.488 C 162.779 49.879 162.794 46.268 162.767 42.658 C 162.763 42.008 162.91 41.767 163.614 41.779 C 166.449 41.831 169.288 41.77 172.122 41.843 C 175.484 41.924 177.861 43.787 178.614 46.815 C 179.439 50.132 178.177 53.354 175.374 54.966 C 174.949 55.21 174.992 55.328 175.21 55.711 C 176.894 58.671 178.537 61.654 180.203 64.625 C 180.426 65.024 180.364 65.177 179.886 65.171 C 178.653 65.156 177.421 65.146 176.189 65.18 C 175.689 65.192 175.579 64.842 175.408 64.521 C 174.102 62.073 172.78 59.631 171.504 57.166 C 171.234 56.643 170.949 56.389 170.331 56.431 C 169.447 56.489 168.555 56.476 167.668 56.431 C 167.123 56.405 166.994 56.61 166.999 57.124 C 167.022 59.531 166.991 61.938 167.022 64.345 C 167.031 64.962 166.899 65.228 166.223 65.181 C 165.368 65.123 164.503 65.129 163.645 65.181 C 162.979 65.222 162.759 65.013 162.765 64.322 C 162.797 60.711 162.779 57.102 162.779 53.49" style="fill-opacity: 1; fill-rule: nonzero; stroke: none; stroke-width: 1.33333; display: inline; fill: url(#color-0);" id="path1742"/>
    <path d="M 144.654 53.485 C 144.654 49.846 144.666 46.208 144.641 42.569 C 144.638 41.983 144.786 41.778 145.402 41.782 C 149.585 41.807 153.768 41.807 157.951 41.782 C 158.527 41.782 158.705 41.967 158.676 42.52 C 158.64 43.234 158.634 43.954 158.679 44.668 C 158.716 45.26 158.525 45.456 157.912 45.449 C 155.191 45.416 152.469 45.459 149.748 45.418 C 149.064 45.408 148.876 45.603 148.899 46.274 C 148.951 47.705 148.954 49.141 148.899 50.571 C 148.87 51.327 149.043 51.612 149.868 51.585 C 151.902 51.519 153.937 51.585 155.971 51.552 C 156.602 51.541 156.851 51.714 156.801 52.371 C 156.749 53.083 156.76 53.804 156.799 54.519 C 156.831 55.088 156.622 55.249 156.061 55.241 C 153.941 55.21 151.82 55.256 149.701 55.212 C 149.043 55.198 148.882 55.398 148.9 56.03 C 148.946 57.548 148.951 59.067 148.899 60.584 C 148.874 61.282 149.043 61.513 149.782 61.502 C 152.618 61.457 155.454 61.502 158.291 61.468 C 158.992 61.458 159.291 61.637 159.204 62.371 C 159.098 63.269 159.596 64.433 158.995 65.007 C 158.441 65.533 157.3 65.156 156.418 65.159 C 152.779 65.175 149.14 65.149 145.501 65.181 C 144.822 65.191 144.632 64.992 144.639 64.314 C 144.671 60.704 144.654 57.095 144.654 53.484" style="fill-opacity: 1; fill-rule: nonzero; stroke: none; stroke-width: 1.33333; display: inline; fill: url(#color-0);" id="path1790-8"/>
    <path d="M 129.506 49.404 C 129.506 50.521 129.526 51.637 129.496 52.754 C 129.484 53.227 129.622 53.413 130.12 53.4 C 131.379 53.366 132.639 53.418 133.897 53.364 C 136.085 53.27 137.425 51.702 137.41 49.324 C 137.396 47.027 136.017 45.52 133.823 45.452 C 132.593 45.414 131.361 45.461 130.131 45.427 C 129.649 45.415 129.482 45.563 129.496 46.055 C 129.529 47.171 129.506 48.288 129.506 49.404 M 125.255 53.477 C 125.255 49.865 125.272 46.253 125.24 42.643 C 125.234 41.964 125.432 41.771 126.108 41.779 C 128.972 41.817 131.84 41.746 134.705 41.815 C 138.538 41.905 141.356 44.611 141.691 48.41 C 142.068 52.702 139.875 56.054 136.099 56.888 C 134.29 57.287 132.444 57.057 130.613 57.095 C 129.506 57.118 129.506 57.104 129.506 58.194 C 129.506 60.256 129.488 62.32 129.517 64.383 C 129.525 64.952 129.408 65.216 128.772 65.179 C 127.858 65.128 126.937 65.135 126.021 65.179 C 125.416 65.209 125.24 64.993 125.244 64.397 C 125.267 60.757 125.255 57.117 125.255 53.478" style="fill-opacity: 1; fill-rule: nonzero; stroke: none; stroke-width: 1.33333; display: inline; fill: url(#color-0);" id="path1782"/>
    <path d="M 112.766 50.254 C 114.006 47.553 115.594 45.033 117.02 42.424 C 117.269 41.969 117.545 41.762 118.084 41.782 C 119.198 41.825 120.319 41.825 121.434 41.782 C 122.196 41.755 122.155 41.991 121.821 42.532 C 119.762 45.868 117.742 49.229 115.663 52.553 C 115.301 53.132 115.339 53.515 115.686 54.068 C 117.799 57.437 119.872 60.834 121.958 64.22 C 122.12 64.481 122.27 64.748 122.511 65.159 C 120.924 65.159 119.477 65.168 118.031 65.159 C 117.635 65.159 117.558 64.788 117.407 64.527 C 115.831 61.77 114.177 59.06 112.748 56.242 C 112.581 56.251 112.518 56.329 112.464 56.439 C 111.092 59.178 109.464 61.775 107.999 64.463 C 107.721 64.971 107.411 65.218 106.798 65.184 C 105.798 65.128 104.794 65.174 103.792 65.162 C 103.546 65.162 103.221 65.294 103.071 65.049 C 102.912 64.792 103.206 64.587 103.332 64.381 C 105.437 60.939 107.536 57.493 109.674 54.07 C 110.025 53.509 110.043 53.117 109.688 52.543 C 107.668 49.283 105.694 45.995 103.714 42.71 C 103.558 42.452 103.305 42.227 103.332 41.797 C 104.761 41.797 106.186 41.811 107.611 41.788 C 108.068 41.779 108.175 42.117 108.334 42.407 C 109.682 44.865 111.024 47.327 112.372 49.785 C 112.464 49.955 112.496 50.178 112.766 50.253" style="fill-opacity: 1; fill-rule: nonzero; stroke: none; stroke-width: 1.33333; display: inline; fill: url(#color-0);" id="path1798"/>
    <path d="M 87.156 53.445 C 87.156 49.834 87.17 46.223 87.143 42.613 C 87.138 41.998 87.267 41.774 87.939 41.78 C 92.093 41.811 96.249 41.803 100.404 41.789 C 100.94 41.789 101.184 41.899 101.144 42.493 C 101.095 43.235 101.099 43.985 101.143 44.727 C 101.176 45.288 100.993 45.459 100.426 45.453 C 97.704 45.426 94.98 45.465 92.258 45.424 C 91.535 45.412 91.337 45.628 91.362 46.337 C 91.418 47.825 91.406 49.317 91.366 50.807 C 91.351 51.418 91.562 51.588 92.153 51.58 C 94.246 51.55 96.338 51.59 98.43 51.557 C 99.045 51.546 99.334 51.676 99.256 52.354 C 99.152 53.284 99.651 54.498 99.058 55.077 C 98.511 55.615 97.314 55.215 96.404 55.227 C 94.97 55.249 93.537 55.258 92.104 55.218 C 91.545 55.204 91.356 55.371 91.369 55.94 C 91.401 57.516 91.407 59.093 91.366 60.669 C 91.35 61.297 91.516 61.509 92.178 61.501 C 95.043 61.465 97.909 61.512 100.774 61.468 C 101.501 61.458 101.742 61.675 101.662 62.382 C 101.56 63.28 102.05 64.454 101.46 65.016 C 100.918 65.534 99.765 65.159 98.883 65.162 C 95.243 65.176 91.603 65.153 87.965 65.182 C 87.325 65.191 87.135 65.013 87.142 64.365 C 87.172 60.725 87.156 57.085 87.156 53.446" style="fill-opacity: 1; fill-rule: nonzero; stroke: none; stroke-width: 1.33333; display: inline; fill: url(#color-0);" id="path1802"/>
    <path d="M 28.223 42.691 C 28.693 42.3 28.991 42.403 29.26 42.402 C 31.81 42.393 34.359 42.411 36.909 42.387 C 37.465 42.377 37.87 42.529 38.268 42.932 C 41.635 46.33 45.014 49.718 48.419 53.078 C 48.893 53.545 48.846 53.778 48.401 54.217 C 44.98 57.601 41.585 61.012 38.186 64.418 C 37.915 64.689 37.663 64.888 37.234 64.886 C 34.37 64.864 31.504 64.874 28.64 64.87 C 28.565 64.87 28.49 64.834 28.401 64.81 C 28.462 64.477 28.736 64.338 28.927 64.145 C 32.223 60.838 35.513 57.524 38.843 54.251 C 39.373 53.729 39.305 53.488 38.817 53.007 C 35.532 49.768 32.285 46.492 29.016 43.239 C 28.801 43.024 28.508 42.885 28.223 42.692" style="fill-opacity: 1; fill-rule: nonzero; stroke: none; stroke-width: 1.33333; display: inline; fill: url(#color-0);" id="path1762"/>
    <path d="M 60.02 64.875 C 61.267 63.637 62.325 62.594 63.377 61.542 C 65.829 59.094 68.265 56.628 70.74 54.202 C 71.208 53.744 71.181 53.517 70.732 53.071 C 67.431 49.812 64.163 46.517 60.872 43.245 C 60.655 43.029 60.338 42.909 60.086 42.726 C 60.458 42.302 60.706 42.402 60.917 42.401 C 63.581 42.392 66.244 42.41 68.908 42.387 C 69.374 42.387 69.707 42.519 70.038 42.852 C 73.45 46.286 76.868 49.714 80.311 53.115 C 80.762 53.562 80.681 53.782 80.279 54.181 C 76.862 57.569 73.459 60.971 70.07 64.386 C 69.718 64.74 69.371 64.889 68.873 64.885 C 66.017 64.863 63.16 64.874 60.02 64.874" style="fill-opacity: 1; fill-rule: nonzero; stroke: none; stroke-width: 1.33333; display: inline; fill: url(#color-0);" id="path1770"/>
    <path d="M 44.162 42.397 C 47.349 42.397 50.294 42.406 53.24 42.388 C 53.603 42.388 53.818 42.574 54.043 42.8 C 57.506 46.265 60.963 49.739 64.445 53.183 C 64.854 53.587 64.752 53.774 64.409 54.113 C 60.954 57.547 57.515 60.996 54.069 64.438 C 53.872 64.635 53.705 64.873 53.367 64.872 C 50.367 64.863 47.366 64.872 44.188 64.872 C 44.496 64.534 44.69 64.306 44.9 64.096 C 48.199 60.791 51.492 57.48 54.816 54.2 C 55.274 53.747 55.275 53.523 54.816 53.07 C 51.513 49.809 48.241 46.517 44.96 43.235 C 44.742 43.017 44.535 42.788 44.162 42.397" style="fill-opacity: 1; fill-rule: nonzero; stroke: none; stroke-width: 1.33333; display: inline; fill: url(#color-0);" id="path1778"/>
    <path id="path1714" style="fill-opacity: 1; fill-rule: nonzero; stroke: none; stroke-width: 1.33333; display: inline; fill: url(#color-0);" d="M 273.864 15.373 C 275.49 10.47 277.52 5.891 279.284 1.21 C 279.504 0.628 279.776 0.346 280.446 0.391 C 281.444 0.457 282.451 0.441 283.453 0.395 C 284.014 0.37 284.196 0.573 284.237 1.109 C 284.508 4.706 284.806 8.301 285.094 11.898 C 285.383 15.522 285.651 19.149 285.982 22.771 C 286.057 23.603 285.86 23.892 285.005 23.804 C 284.24 23.725 283.454 23.729 282.689 23.804 C 281.954 23.877 281.777 23.575 281.734 22.912 C 281.57 20.312 281.358 17.713 281.167 15.115 C 280.978 12.553 280.697 9.995 280.671 7.386 C 280.428 8.102 280.219 8.834 279.933 9.532 C 278.601 12.787 277.24 16.03 275.908 19.287 C 275.754 19.66 275.553 19.854 275.146 19.796 C 275.118 19.796 275.089 19.796 275.061 19.796 C 274.061 19.777 272.883 20.079 272.111 19.652 C 271.33 19.218 271.219 17.94 270.841 17.021 C 269.541 13.852 268.107 10.735 266.97 7.47 C 266.907 9.078 266.859 10.676 266.728 12.27 C 266.428 15.922 266.152 19.577 265.894 23.233 C 265.86 23.689 265.704 23.807 265.275 23.797 C 264.244 23.771 263.212 23.773 262.181 23.797 C 261.736 23.807 261.602 23.69 261.642 23.212 C 262.26 15.822 262.861 8.431 263.448 1.039 C 263.485 0.569 263.627 0.388 264.111 0.401 C 265.2 0.431 266.29 0.437 267.377 0.398 C 267.886 0.381 268.125 0.552 268.306 1.031 C 270.064 5.654 272.064 10.183 273.641 14.878 C 273.685 15.009 273.755 15.135 273.864 15.375"/>
    <path id="path1750" style="fill-opacity: 1; fill-rule: nonzero; stroke: none; stroke-width: 1.33333; display: inline; fill: url(#color-0);" d="M 290.096 8.562 C 290.096 6.1 290.113 3.635 290.082 1.172 C 290.075 0.587 290.217 0.359 290.839 0.394 C 291.722 0.446 292.616 0.453 293.501 0.393 C 294.191 0.347 294.364 0.588 294.361 1.258 C 294.332 5.784 294.345 10.311 294.348 14.836 C 294.348 15.295 294.348 15.757 294.4 16.209 C 294.61 18.063 295.591 19.344 297.351 19.965 C 298.624 20.414 299.938 20.438 301.244 20.093 C 303.461 19.505 304.699 17.838 304.707 15.372 C 304.723 10.702 304.733 6.031 304.691 1.362 C 304.684 0.55 304.93 0.338 305.694 0.393 C 306.577 0.457 307.47 0.427 308.357 0.401 C 308.791 0.389 308.97 0.524 308.968 0.981 C 308.949 5.966 309.073 10.954 308.897 15.932 C 308.737 20.474 305.65 23.573 301.115 24.093 C 299.042 24.332 296.991 24.188 295.057 23.301 C 291.915 21.863 290.275 19.36 290.124 15.953 C 290.016 13.494 290.104 11.027 290.104 8.563 Z"/>
    <path id="path1806" style="fill-opacity: 1; fill-rule: nonzero; stroke: none; stroke-width: 1.33333; display: inline; fill: url(#color-0);" d="M 351.575 24.182 C 344.599 24.16 339.794 19.97 338.976 13.747 C 338.169 7.611 341.655 2.075 347.448 0.515 C 351.577 -0.599 355.445 0.083 358.926 2.67 C 359.407 3.028 359.536 3.324 359.135 3.845 C 358.668 4.457 358.251 5.116 357.878 5.791 C 357.584 6.323 357.355 6.267 356.91 5.941 C 354.634 4.279 352.102 3.518 349.297 4.097 C 345.372 4.907 342.938 8.425 343.277 12.681 C 343.61 16.863 346.355 19.85 350.37 20.265 C 353.026 20.539 355.325 19.565 357.317 17.865 C 357.816 17.438 358.044 17.414 358.393 17.984 C 358.797 18.641 359.264 19.265 359.761 19.855 C 360.12 20.284 360.064 20.547 359.662 20.901 C 357.167 23.102 354.255 24.168 351.575 24.182"/>
    <path id="path1810" style="fill-opacity: 1; fill-rule: nonzero; stroke: none; stroke-width: 1.33333; display: inline; fill: url(#color-0);" d="M 320.051 24.184 C 317.149 24.158 314.666 23.284 312.491 21.52 C 312.055 21.167 311.952 20.896 312.338 20.425 C 312.883 19.763 313.382 19.058 313.85 18.34 C 314.145 17.886 314.345 17.899 314.769 18.225 C 316.565 19.609 318.54 20.518 320.888 20.189 C 322.237 19.999 323.149 19.205 323.408 18.062 C 323.665 16.937 323.214 16.004 321.994 15.191 C 320.892 14.456 319.65 14.001 318.448 13.466 C 317.298 12.953 316.152 12.431 315.119 11.698 C 311.705 9.271 311.501 4.557 314.765 1.911 C 317.573 -0.366 320.761 -0.361 324.044 0.648 C 325.036 0.953 325.922 1.482 326.763 2.09 C 327.152 2.371 327.265 2.611 326.984 3.066 C 326.533 3.795 326.134 4.56 325.767 5.335 C 325.532 5.829 325.361 5.942 324.854 5.572 C 323.36 4.481 321.7 3.844 319.805 3.976 C 319.071 4.027 318.402 4.25 317.809 4.683 C 316.424 5.696 316.36 7.483 317.682 8.571 C 318.488 9.233 319.45 9.621 320.395 10.028 C 321.604 10.549 322.838 11.013 323.988 11.658 C 327.011 13.35 328.222 15.776 327.565 18.826 C 326.941 21.723 324.408 23.843 321.229 24.121 C 320.801 24.158 320.371 24.167 320.051 24.184"/>
    <path id="path1834" style="fill-opacity: 1; fill-rule: nonzero; stroke: none; stroke-width: 1.33333; display: inline; fill: url(#color-0);" d="M 335.38 12.135 C 335.38 15.716 335.354 19.297 335.401 22.877 C 335.411 23.661 335.178 23.86 334.439 23.803 C 333.585 23.739 332.721 23.754 331.864 23.803 C 331.287 23.835 331.143 23.626 331.148 23.076 C 331.173 20.468 331.158 17.861 331.158 15.255 C 331.158 10.585 331.173 5.916 331.144 1.247 C 331.14 0.558 331.344 0.355 332.013 0.398 C 332.869 0.454 333.734 0.457 334.589 0.397 C 335.258 0.351 335.399 0.602 335.394 1.225 C 335.365 4.863 335.38 8.5 335.38 12.139"/>
    <path id="path1818" style="fill-opacity: 1; fill-rule: nonzero; stroke: none; stroke-width: 1.33333; display: inline; fill: url(#color-0);" d="M 234.725 19.504 C 234.476 15.823 234.653 12.386 234.576 8.953 C 234.562 8.301 234.76 8.134 235.397 8.14 C 237.439 8.157 237.44 8.132 237.44 10.213 C 237.439 14.453 237.427 18.692 237.454 22.93 C 237.457 23.579 237.3 23.748 236.616 23.823 C 235.131 23.985 234.253 23.465 233.479 22.157 C 231.575 18.939 229.281 15.962 227.393 12.519 C 227.598 16.043 227.423 19.399 227.524 22.751 C 227.552 23.657 227.27 23.836 226.434 23.808 C 224.652 23.744 224.649 23.789 224.651 21.996 C 224.651 17.672 224.66 13.347 224.638 9.022 C 224.635 8.38 224.785 8.196 225.476 8.119 C 226.968 7.954 227.839 8.497 228.607 9.794 C 230.51 13.015 232.798 15.994 234.725 19.504"/>
    <path id="path1822" style="fill-opacity: 1; fill-rule: nonzero; stroke: none; stroke-width: 1.33333; display: inline; fill: url(#color-0);" d="M 243.678 15.956 C 243.678 17.56 243.689 19.163 243.67 20.766 C 243.666 21.194 243.769 21.392 244.24 21.369 C 244.984 21.333 245.732 21.398 246.471 21.34 C 248.477 21.189 250.055 20.358 250.79 18.368 C 251.355 16.842 251.363 15.276 250.848 13.737 C 250.363 12.284 249.346 11.332 247.876 10.883 C 246.704 10.524 245.496 10.625 244.296 10.59 C 243.804 10.575 243.66 10.753 243.668 11.232 C 243.694 12.806 243.678 14.383 243.678 15.956 M 240.831 15.968 C 240.831 13.621 240.846 11.273 240.819 8.926 C 240.812 8.342 240.963 8.117 241.583 8.142 C 243.498 8.218 245.418 8.05 247.332 8.242 C 252.274 8.735 254.519 12.472 254.075 16.881 C 253.634 21.26 250.798 23.746 246.376 23.784 C 244.802 23.799 243.226 23.746 241.653 23.806 C 240.933 23.832 240.809 23.564 240.818 22.926 C 240.85 20.607 240.831 18.288 240.831 15.968"/>
    <path id="path1838" style="fill-opacity: 1; fill-rule: nonzero; stroke: none; stroke-width: 1.33333; display: inline; fill: url(#color-0);" d="M 218.218 17.459 C 217.574 15.268 216.743 13.244 216.241 10.855 C 215.657 13.092 214.968 15.025 214.32 16.972 C 214.215 17.286 214.273 17.463 214.648 17.462 C 215.815 17.452 216.981 17.462 218.218 17.462 M 223.154 23.728 C 220.35 23.997 220.35 23.997 219.516 21.492 C 218.955 19.807 218.955 19.807 217.141 19.807 C 216.138 19.807 215.134 19.841 214.134 19.794 C 213.603 19.771 213.381 19.978 213.242 20.459 C 212.972 21.39 212.632 22.304 212.356 23.233 C 212.23 23.652 212.026 23.825 211.571 23.8 C 210.831 23.76 210.09 23.79 209.235 23.79 C 209.777 22.255 210.29 20.808 210.798 19.36 C 212.02 15.881 213.252 12.409 214.446 8.921 C 214.645 8.338 214.912 8.132 215.538 8.14 C 217.694 8.168 217.692 8.144 218.398 10.15 C 219.87 14.328 221.344 18.504 222.815 22.682 C 222.928 23.003 223.024 23.329 223.154 23.727"/>
    <path id="path1722" style="fill-opacity: 1; fill-rule: nonzero; stroke: none; stroke-width: 1.33333; display: inline; fill: url(#color-0);" d="M 164.48 7.099 C 164.719 12.357 164.487 17.601 164.589 22.841 C 164.605 23.664 164.34 23.855 163.587 23.802 C 162.732 23.74 161.866 23.754 161.01 23.802 C 160.433 23.834 160.285 23.627 160.291 23.072 C 160.317 20.552 160.302 18.03 160.302 15.508 C 160.302 10.779 160.315 6.051 160.288 1.323 C 160.284 0.643 160.407 0.343 161.166 0.395 C 162.277 0.47 163.584 0.084 164.458 0.551 C 165.329 1.017 165.779 2.286 166.392 3.217 C 168.659 6.661 170.91 10.115 173.183 13.556 C 173.968 14.745 174.579 16.03 175.21 17.176 L 175.21 13.861 C 175.21 9.648 175.223 5.436 175.197 1.224 C 175.192 0.603 175.32 0.349 175.994 0.396 C 176.878 0.458 177.774 0.464 178.657 0.395 C 179.399 0.337 179.407 0.721 179.406 1.27 C 179.395 6.858 179.399 12.446 179.399 18.034 C 179.399 19.696 179.377 21.359 179.411 23.02 C 179.423 23.596 179.296 23.837 178.664 23.803 C 177.523 23.742 176.196 24.112 175.285 23.644 C 174.414 23.196 173.963 21.918 173.35 20.989 C 171.125 17.62 168.918 14.238 166.685 10.874 C 165.881 9.661 165.233 8.362 164.48 7.102"/>
    <path id="path1734" style="fill-opacity: 1; fill-rule: nonzero; stroke: none; stroke-width: 1.33333; display: inline; fill: url(#color-0);" d="M 110.876 12.15 L 110.876 19.369 C 110.876 19.399 110.879 19.427 110.876 19.455 C 110.819 19.937 110.949 20.192 111.518 20.17 C 112.635 20.123 113.755 20.185 114.87 20.136 C 118.601 19.969 121.075 17.983 121.865 14.553 C 122.13 13.398 122.165 12.225 122.081 11.048 C 121.821 7.377 119.641 4.85 116.173 4.229 C 114.67 3.959 113.143 4.104 111.626 4.052 C 111.006 4.029 110.858 4.261 110.865 4.842 C 110.891 7.278 110.876 9.714 110.876 12.15 M 106.619 12.095 C 106.619 8.487 106.641 4.88 106.6 1.272 C 106.592 0.536 106.817 0.372 107.513 0.393 C 110.431 0.486 113.36 0.212 116.266 0.531 C 122.845 1.251 126.627 5.61 126.504 12.232 C 126.451 15.046 125.821 17.687 123.974 19.901 C 121.796 22.516 118.866 23.616 115.571 23.751 C 112.799 23.863 110.019 23.765 107.241 23.802 C 106.655 23.811 106.609 23.557 106.611 23.089 C 106.625 19.423 106.619 15.76 106.619 12.095"/>
    <path id="path1746" style="fill-opacity: 1; fill-rule: nonzero; stroke: none; stroke-width: 1.33333; display: inline; fill: url(#color-0);" d="M 134.357 7.718 C 134.357 8.748 134.364 9.776 134.354 10.806 C 134.351 11.16 134.392 11.41 134.851 11.4 C 136.136 11.373 137.429 11.455 138.707 11.347 C 140.766 11.175 141.887 9.786 141.873 7.6 C 141.861 5.495 140.86 4.401 138.748 4.153 C 137.493 4.004 136.234 4.103 134.978 4.057 C 134.482 4.04 134.338 4.249 134.35 4.718 C 134.375 5.717 134.357 6.719 134.357 7.718 M 142.34 13.847 C 144.091 17.022 145.832 20.178 147.573 23.334 C 147.625 23.429 147.665 23.533 147.779 23.782 C 146.223 23.782 144.758 23.792 143.292 23.773 C 142.935 23.773 142.887 23.401 142.76 23.164 C 141.449 20.718 140.133 18.275 138.86 15.809 C 138.575 15.261 138.265 14.99 137.617 15.038 C 136.792 15.1 135.955 15.086 135.126 15.038 C 134.528 15.008 134.336 15.208 134.344 15.813 C 134.374 18.191 134.331 20.569 134.372 22.945 C 134.383 23.624 134.192 23.842 133.513 23.797 C 132.63 23.738 131.738 23.752 130.851 23.797 C 130.294 23.823 130.113 23.65 130.123 23.082 C 130.156 21.249 130.135 19.416 130.135 17.582 C 130.135 12.14 130.147 6.697 130.122 1.254 C 130.118 0.589 130.287 0.371 130.976 0.392 C 134.009 0.484 137.05 0.251 140.079 0.535 C 143.217 0.83 145.398 2.738 145.996 5.631 C 146.705 9.062 145.427 12.129 142.65 13.66 C 142.525 13.73 142.406 13.805 142.34 13.845"/>
    <path id="path1754" style="fill-opacity: 1; fill-rule: nonzero; stroke: none; stroke-width: 1.33333; display: inline; fill: url(#color-0);" d="M 201.892 0.408 C 201.47 1.128 201.143 1.691 200.811 2.251 C 199.098 5.13 197.4 8.016 195.664 10.88 C 195.358 11.384 195.337 11.751 195.643 12.274 C 197.711 15.807 199.739 19.361 201.779 22.91 C 201.919 23.152 202.048 23.4 202.256 23.781 C 200.68 23.781 199.21 23.79 197.74 23.781 C 197.329 23.781 197.289 23.379 197.146 23.127 C 195.498 20.213 193.846 17.3 192.243 14.36 C 191.921 13.768 191.56 13.58 190.904 13.593 C 188.775 13.63 188.774 13.605 188.774 15.743 C 188.774 18.149 188.747 20.556 188.791 22.962 C 188.803 23.662 188.575 23.842 187.918 23.805 C 187.002 23.753 186.084 23.773 185.167 23.796 C 184.721 23.807 184.505 23.728 184.507 23.199 C 184.523 15.809 184.521 8.416 184.507 1.022 C 184.507 0.528 184.667 0.383 185.147 0.399 C 186.12 0.431 187.097 0.442 188.069 0.395 C 188.659 0.367 188.788 0.597 188.783 1.137 C 188.762 3.772 188.801 6.409 188.756 9.044 C 188.744 9.774 188.991 9.881 189.67 9.961 C 191.23 10.143 192.14 9.628 192.864 8.166 C 194.053 5.758 195.541 3.501 196.845 1.148 C 197.175 0.554 197.541 0.364 198.19 0.393 C 199.36 0.444 200.535 0.407 201.892 0.407"/>
    <path id="path1826" style="fill-opacity: 1; fill-rule: nonzero; stroke: none; stroke-width: 1.33333; display: inline; fill: url(#color-0);" d="M 150.971 12.106 C 150.971 8.471 150.989 4.836 150.957 1.201 C 150.95 0.552 151.13 0.356 151.772 0.394 C 152.685 0.448 153.604 0.435 154.519 0.398 C 155.03 0.378 155.223 0.52 155.221 1.061 C 155.207 8.418 155.207 15.775 155.222 23.132 C 155.223 23.672 155.044 23.818 154.527 23.799 C 153.612 23.762 152.692 23.735 151.782 23.808 C 151.052 23.863 150.954 23.558 150.959 22.93 C 150.985 19.323 150.971 15.717 150.971 12.109"/>
    <path d="M 93.363 19.541 C 93.878 19.541 94.393 19.555 94.907 19.541 C 95.335 19.525 95.396 19.707 95.249 20.061 C 94.313 22.33 93.376 24.597 92.454 26.873 C 92.318 27.21 92.093 27.255 91.785 27.25 C 91.1 27.238 90.412 27.216 89.727 27.26 C 89.195 27.29 89.174 27.057 89.292 26.648 C 89.927 24.455 90.558 22.261 91.176 20.064 C 91.288 19.67 91.492 19.512 91.906 19.539 C 92.389 19.573 92.878 19.548 93.363 19.548" style="fill-opacity: 1; fill-rule: nonzero; stroke: none; stroke-width: 1.33333; display: inline; fill: url(#color-0);" id="path1842"/>
    <path id="path1726" style="fill-opacity: 1; fill-rule: nonzero; stroke: none; stroke-width: 1.33333; display: inline; fill: url(#color-0);" d="M 34.786 11.998 C 34.803 8.555 32.943 5.656 29.954 4.46 C 27.018 3.285 23.646 4.032 21.513 6.33 C 18.68 9.382 18.692 14.628 21.54 17.815 C 24.617 21.261 30.039 21.111 32.921 17.498 C 34.203 15.89 34.786 14.041 34.786 11.998 M 27.065 24.179 C 20.204 24.158 14.956 18.803 15.002 11.87 C 15.046 5.129 20.335 0.006 27.216 0.038 C 33.994 0.071 39.233 5.314 39.193 12.023 C 39.149 18.925 33.887 24.2 27.065 24.179"/>
    <path id="path1730" style="fill-opacity: 1; fill-rule: nonzero; stroke: none; stroke-width: 1.33333; display: inline; fill: url(#color-0);" d="M 53.038 3.916 C 49.59 4.029 46.801 6.134 45.812 9.383 C 45.388 10.778 45.355 12.192 45.577 13.631 C 46.303 18.347 50.925 21.402 55.351 19.958 C 58.785 18.837 60.417 16.218 60.816 12.747 C 61.362 7.999 57.622 3.765 53.038 3.916 M 53.175 24.18 C 46.341 24.202 41.113 18.951 41.073 12.022 C 41.035 5.242 46.25 0.047 53.107 0.038 C 59.953 0.03 65.176 5.137 65.207 11.869 C 65.239 18.847 60.049 24.156 53.175 24.18"/>
    <path id="path1738" style="fill-opacity: 1; fill-rule: nonzero; stroke: none; stroke-width: 1.33333; display: inline; fill: url(#color-0);" d="M 72.946 12.088 C 72.946 14.552 72.958 17.015 72.936 19.479 C 72.931 19.994 73.071 20.187 73.61 20.168 C 74.726 20.127 75.845 20.183 76.961 20.137 C 80.553 19.985 83.051 18.095 83.878 14.902 C 84.247 13.476 84.303 12.028 84.124 10.557 C 83.717 7.22 81.724 4.96 78.463 4.275 C 76.795 3.924 75.096 4.094 73.408 4.067 C 72.857 4.059 72.947 4.453 72.947 4.785 C 72.944 7.22 72.946 9.654 72.946 12.089 M 68.717 12.047 C 68.717 8.437 68.73 4.827 68.703 1.218 C 68.699 0.585 68.862 0.374 69.519 0.395 C 72.581 0.495 75.648 0.245 78.707 0.553 C 84.432 1.13 88.33 5.291 88.571 11.038 C 88.7 14.119 88.251 17.047 86.331 19.575 C 84.202 22.379 81.216 23.575 77.825 23.742 C 74.995 23.88 72.152 23.765 69.317 23.801 C 68.696 23.81 68.713 23.479 68.713 23.048 C 68.719 19.382 68.717 15.714 68.717 12.047"/>
    <path id="path1814" style="fill-opacity: 1; fill-rule: nonzero; stroke: none; stroke-width: 1.33333; display: inline; fill: url(#color-0);" d="M 0.019 12.091 C 0.019 8.452 0.031 4.813 0.007 1.174 C 0.003 0.588 0.143 0.39 0.762 0.395 C 4.745 0.422 8.728 0.422 12.71 0.395 C 13.328 0.39 13.502 0.59 13.467 1.177 C 13.421 1.89 13.416 2.611 13.468 3.324 C 13.513 3.955 13.25 4.08 12.678 4.074 C 10.156 4.048 7.634 4.08 5.113 4.052 C 4.507 4.044 4.25 4.16 4.271 4.844 C 4.322 6.561 4.311 8.282 4.275 10.001 C 4.263 10.581 4.466 10.718 5.01 10.71 C 7.073 10.682 9.138 10.72 11.199 10.687 C 11.797 10.678 12.117 10.771 12.036 11.469 C 11.926 12.397 12.437 13.648 11.832 14.178 C 11.304 14.641 10.087 14.327 9.174 14.335 C 7.799 14.346 6.423 14.367 5.049 14.324 C 4.453 14.306 4.266 14.473 4.274 15.085 C 4.306 17.72 4.266 20.356 4.303 22.991 C 4.311 23.637 4.14 23.845 3.49 23.803 C 2.635 23.747 1.769 23.741 0.914 23.803 C 0.214 23.854 -0.007 23.657 0 22.922 C 0.041 19.312 0.019 15.703 0.019 12.091"/>
  </g>
</svg>