<?xml version="1.0" encoding="utf-8"?>
<svg id="svg3" height="145.4px" width="360px" version="1.1" xmlns="http://www.w3.org/2000/svg" xmlns:xlink="http://www.w3.org/1999/xlink" xmlns:bx="https://boxy-svg.com">
  <defs id="defs7">
    <linearGradient id="color-0" bx:pinned="true">
      <stop style="stop-color: rgb(221, 221, 221);"/>
    </linearGradient>
    <linearGradient id="gradient-18" bx:pinned="true">
      <stop offset="0" style="stop-color: rgb(238, 238, 238);"/>
      <stop offset="1" style="stop-color: rgb(170, 170, 170);"/>
    </linearGradient>
    <linearGradient id="gradient-18-0" gradientUnits="userSpaceOnUse" x1="74.266" y1="130.922" x2="74.266" y2="143.154" gradientTransform="matrix(4.610538, 0, 0, 4.610538, -304.106445, -602.228394)" xlink:href="#gradient-18"/>
    <linearGradient id="gradient-18-1" gradientUnits="userSpaceOnUse" x1="86.503" y1="130.922" x2="86.503" y2="143.154" gradientTransform="matrix(4.610538, 0, 0, 4.610538, -304.106445, -602.228394)" xlink:href="#gradient-18"/>
    <linearGradient id="gradient-18-2" gradientUnits="userSpaceOnUse" x1="95.011" y1="130.922" x2="95.011" y2="143.154" gradientTransform="matrix(4.610538, 0, 0, 4.610538, -304.106445, -602.228394)" xlink:href="#gradient-18"/>
    <linearGradient id="gradient-18-3" gradientUnits="userSpaceOnUse" x1="104.127" y1="130.62" x2="104.127" y2="143.457" gradientTransform="matrix(4.610538, 0, 0, 4.610538, -304.106445, -602.228394)" xlink:href="#gradient-18"/>
    <linearGradient id="gradient-18-4" gradientUnits="userSpaceOnUse" x1="115.143" y1="130.62" x2="115.143" y2="143.457" gradientTransform="matrix(4.610538, 0, 0, 4.610538, -304.106445, -602.228394)" xlink:href="#gradient-18"/>
    <linearGradient id="gradient-18-5" gradientUnits="userSpaceOnUse" x1="129.003" y1="130.922" x2="129.003" y2="143.154" gradientTransform="matrix(4.610538, 0, 0, 4.610538, -304.106445, -602.228394)" xlink:href="#gradient-18"/>
    <linearGradient id="gradient-18-6" gradientUnits="userSpaceOnUse" x1="140.373" y1="130.922" x2="140.373" y2="143.154" gradientTransform="matrix(4.610538, 0, 0, 4.610538, -304.106445, -602.228394)" xlink:href="#gradient-18"/>
    <linearGradient id="gradient-18-7" gradientUnits="userSpaceOnUse" x1="98.877" y1="149.603" x2="98.877" y2="161.835" gradientTransform="matrix(4.610538, 0, 0, 4.610538, -304.106445, -602.228394)" xlink:href="#gradient-18"/>
    <linearGradient id="gradient-18-8" gradientUnits="userSpaceOnUse" x1="109.431" y1="149.31" x2="109.431" y2="162.147" gradientTransform="matrix(4.610538, 0, 0, 4.610538, -304.106445, -602.228394)" xlink:href="#gradient-18"/>
  </defs>
  <g>
    <path d="M 0 1.392 L 19.111 1.392 L 25.621 21.093 L 32.131 1.392 L 44.473 1.392 L 50.983 21.093 L 57.493 1.392 L 76.604 1.392 L 58.001 57.789 L 43.966 57.789 L 38.3 40.711 L 32.638 57.789 L 18.599 57.789 Z M 27.055 51.025 L 38.3 15.598 L 49.549 51.025 L 51.661 51.025 L 65.783 8.156 L 63.496 8.156 L 50.647 47.134 L 38.3 8.156 L 25.957 47.134 L 13.103 8.156 L 10.821 8.156 L 24.943 51.025 Z" style="font-style: normal; font-weight: normal; font-stretch: normal; font-size: 18.3389px; font-family: Phosphate; font-variant: normal; text-align: center; writing-mode: lr-tb; text-anchor: middle; fill-opacity: 1; fill-rule: nonzero; stroke: none; stroke-width: 0.481394; fill: url(#gradient-18-0);" id="path844"/>
    <path d="M 77.807 1.392 L 111.036 1.392 L 111.036 16.188 L 95.816 16.188 L 95.816 22.449 L 110.782 22.449 L 110.782 36.483 L 95.816 36.483 L 95.816 42.993 L 111.63 42.993 L 111.63 57.789 L 77.807 57.789 Z M 105.369 51.025 L 105.369 48.996 L 88.462 48.996 L 88.462 30.48 L 104.526 30.48 L 104.526 28.452 L 88.462 28.452 L 88.462 10.185 L 105.369 10.185 L 105.369 8.156 L 86.263 8.156 L 86.263 51.025 Z" style="font-style: normal; font-weight: normal; font-stretch: normal; font-size: 18.3389px; font-family: Phosphate; font-variant: normal; text-align: center; writing-mode: lr-tb; text-anchor: middle; fill-opacity: 1; fill-rule: nonzero; stroke: none; stroke-width: 0.481394; fill: url(#gradient-18-1);" id="path846"/>
    <path d="M 116.78 1.392 L 135.55 1.392 L 135.55 42.993 L 151.11 42.993 L 151.11 57.789 L 116.78 57.789 Z M 146.375 51.025 L 146.375 48.996 L 127.435 48.996 L 127.435 8.156 L 125.236 8.156 L 125.236 51.025 Z" style="font-style: normal; font-weight: normal; font-stretch: normal; font-size: 18.3389px; font-family: Phosphate; font-variant: normal; text-align: center; writing-mode: lr-tb; text-anchor: middle; fill-opacity: 1; fill-rule: nonzero; stroke: none; stroke-width: 0.481394; fill: url(#gradient-18-2);" id="path848"/>
    <path d="M 161.092 29.591 C 161.092 26.884 161.544 24.348 162.448 21.983 C 163.407 19.613 164.73 17.557 166.422 15.81 C 168.109 14.062 170.17 12.679 172.591 11.665 C 175.016 10.65 177.722 10.143 180.71 10.143 C 182.176 10.143 183.472 10.259 184.597 10.484 C 185.782 10.65 186.768 10.876 187.557 11.158 C 188.516 11.439 189.332 11.78 190.01 12.172 L 191.194 10.143 C 190.291 9.751 189.332 9.383 188.317 9.046 C 187.363 8.765 186.261 8.511 185.021 8.285 C 183.781 8.059 182.342 7.944 180.71 7.944 C 177.833 7.944 175.071 8.451 172.425 9.47 C 169.829 10.484 167.519 11.946 165.491 13.864 C 163.517 15.727 161.913 18.009 160.673 20.715 C 159.488 23.362 158.893 26.322 158.893 29.591 C 158.893 32.919 159.46 35.902 160.585 38.553 C 161.77 41.204 163.374 43.487 165.408 45.405 C 167.436 47.263 169.802 48.701 172.508 49.716 C 175.214 50.73 178.087 51.237 181.134 51.237 C 182.822 51.237 184.343 51.094 185.699 50.813 C 187.05 50.532 188.207 50.223 189.166 49.886 C 190.235 49.49 191.194 49.038 192.038 48.531 L 190.858 46.502 C 190.125 47.009 189.276 47.433 188.317 47.77 C 187.474 48.106 186.459 48.42 185.275 48.701 C 184.09 48.927 182.711 49.038 181.134 49.038 C 178.031 49.038 175.242 48.531 172.762 47.516 C 170.281 46.502 168.169 45.119 166.422 43.371 C 164.73 41.624 163.407 39.568 162.448 37.203 C 161.544 34.833 161.092 32.297 161.092 29.591 Z M 150.442 29.591 C 150.442 25.081 151.23 21.024 152.807 17.414 C 154.384 13.753 156.528 10.623 159.234 8.032 C 161.941 5.436 165.094 3.463 168.704 2.112 C 172.31 0.701 176.146 0 180.203 0 C 183.416 0 186.261 0.309 188.742 0.927 C 191.277 1.549 193.449 2.255 195.252 3.043 C 197.34 3.942 199.143 4.929 200.664 6.003 L 191.785 21.642 C 190.886 20.969 189.899 20.319 188.825 19.701 C 187.87 19.249 186.713 18.825 185.362 18.428 C 184.062 17.981 182.568 17.755 180.881 17.755 C 179.133 17.755 177.524 18.064 176.058 18.682 C 174.592 19.304 173.296 20.148 172.171 21.222 C 171.097 22.292 170.253 23.56 169.631 25.026 C 169.013 26.437 168.704 27.958 168.704 29.591 C 168.704 31.227 169.013 32.776 169.631 34.243 C 170.309 35.649 171.212 36.889 172.337 37.963 C 173.467 39.033 174.79 39.877 176.312 40.499 C 177.833 41.117 179.497 41.43 181.3 41.43 C 183.103 41.43 184.712 41.204 186.123 40.753 C 187.529 40.301 188.714 39.794 189.673 39.231 C 190.798 38.609 191.785 37.876 192.633 37.032 L 201.508 52.675 C 199.987 53.916 198.184 55.013 196.1 55.972 C 194.293 56.76 192.126 57.493 189.585 58.171 C 187.05 58.844 184.15 59.186 180.881 59.186 C 176.482 59.186 172.425 58.48 168.704 57.069 C 164.984 55.603 161.77 53.575 159.064 50.983 C 156.357 48.392 154.246 45.289 152.724 41.684 C 151.203 38.019 150.442 33.989 150.442 29.591 Z" style="font-style: normal; font-weight: normal; font-stretch: normal; font-size: 18.3389px; font-family: Phosphate; font-variant: normal; text-align: center; writing-mode: lr-tb; text-anchor: middle; fill-opacity: 1; fill-rule: nonzero; stroke: none; stroke-width: 0.481394; fill: url(#gradient-18-3);" id="path850"/>
    <path d="M 197.174 29.591 C 197.174 25.533 197.935 21.702 199.457 18.092 C 201.038 14.486 203.15 11.356 205.801 8.705 C 208.507 6.003 211.661 3.887 215.271 2.365 C 218.876 0.788 222.707 0 226.769 0 C 230.827 0 234.658 0.788 238.268 2.365 C 241.873 3.887 245.004 6.003 247.65 8.705 C 250.357 11.356 252.473 14.486 253.995 18.092 C 255.571 21.702 256.36 25.533 256.36 29.591 C 256.36 33.648 255.571 37.484 253.995 41.089 C 252.473 44.699 250.357 47.853 247.65 50.559 C 245.004 53.21 241.873 55.322 238.268 56.903 C 234.658 58.425 230.827 59.186 226.769 59.186 C 222.707 59.186 218.876 58.425 215.271 56.903 C 211.661 55.322 208.507 53.21 205.801 50.559 C 203.15 47.853 201.038 44.699 199.457 41.089 C 197.935 37.484 197.174 33.648 197.174 29.591 Z M 205.123 29.591 C 205.123 32.578 205.685 35.395 206.815 38.046 C 207.94 40.637 209.489 42.924 211.462 44.897 C 213.436 46.866 215.718 48.42 218.314 49.545 C 220.96 50.675 223.782 51.237 226.769 51.237 C 229.757 51.237 232.546 50.675 235.137 49.545 C 237.789 48.42 240.098 46.866 242.072 44.897 C 244.045 42.924 245.594 40.637 246.724 38.046 C 247.849 35.395 248.411 32.578 248.411 29.591 C 248.411 26.603 247.849 23.814 246.724 21.222 C 245.594 18.571 244.045 16.261 242.072 14.288 C 240.098 12.315 237.789 10.766 235.137 9.636 C 232.546 8.511 229.757 7.944 226.769 7.944 C 223.782 7.944 220.96 8.511 218.314 9.636 C 215.718 10.766 213.436 12.315 211.462 14.288 C 209.489 16.261 207.94 18.571 206.815 21.222 C 205.685 23.814 205.123 26.603 205.123 29.591 Z M 214.929 29.591 C 214.929 31.227 215.243 32.776 215.861 34.243 C 216.479 35.649 217.327 36.889 218.397 37.963 C 219.466 39.033 220.706 39.877 222.117 40.499 C 223.583 41.117 225.133 41.43 226.769 41.43 C 228.401 41.43 229.923 41.117 231.334 40.499 C 232.8 39.877 234.068 39.033 235.137 37.963 C 236.212 36.889 237.055 35.649 237.673 34.243 C 238.296 32.776 238.605 31.227 238.605 29.591 C 238.605 27.958 238.296 26.437 237.673 25.026 C 237.055 23.56 236.212 22.292 235.137 21.222 C 234.068 20.148 232.8 19.304 231.334 18.682 C 229.923 18.064 228.401 17.755 226.769 17.755 C 225.133 17.755 223.583 18.064 222.117 18.682 C 220.706 19.304 219.466 20.148 218.397 21.222 C 217.327 22.292 216.479 23.56 215.861 25.026 C 215.243 26.437 214.929 27.958 214.929 29.591 Z M 226.769 49.038 C 224.063 49.038 221.527 48.531 219.157 47.516 C 216.847 46.502 214.791 45.119 212.984 43.371 C 211.236 41.569 209.858 39.512 208.844 37.203 C 207.829 34.833 207.322 32.297 207.322 29.591 C 207.322 26.884 207.829 24.376 208.844 22.066 C 209.858 19.701 211.236 17.64 212.984 15.893 C 214.791 14.09 216.847 12.679 219.157 11.665 C 221.527 10.65 224.063 10.143 226.769 10.143 C 229.476 10.143 231.984 10.65 234.294 11.665 C 236.659 12.679 238.72 14.09 240.467 15.893 C 242.27 17.64 243.676 19.701 244.695 22.066 C 245.709 24.376 246.217 26.884 246.217 29.591 C 246.217 32.297 245.709 34.833 244.695 37.203 C 243.676 39.512 242.27 41.569 240.467 43.371 C 238.72 45.119 236.659 46.502 234.294 47.516 C 231.984 48.531 229.476 49.038 226.769 49.038 Z" style="font-style: normal; font-weight: normal; font-stretch: normal; font-size: 18.3389px; font-family: Phosphate; font-variant: normal; text-align: center; writing-mode: lr-tb; text-anchor: middle; fill-opacity: 1; fill-rule: nonzero; stroke: none; stroke-width: 0.481394; fill: url(#gradient-18-4);" id="path852"/>
    <path d="M 261.113 1.392 L 275.996 1.392 L 290.708 23.039 L 305.333 1.392 L 320.216 1.392 L 320.216 57.789 L 302.207 57.789 L 302.207 37.498 L 290.708 54.409 L 279.122 37.498 L 279.122 57.789 L 261.113 57.789 Z M 271.768 51.025 L 271.768 12.218 L 290.708 39.78 L 309.561 12.218 L 309.561 51.025 L 311.76 51.025 L 311.76 8.156 L 309.561 8.156 L 290.708 35.976 L 271.768 8.156 L 269.569 8.156 L 269.569 51.025 Z" style="font-style: normal; font-weight: normal; font-stretch: normal; font-size: 18.3389px; font-family: Phosphate; font-variant: normal; text-align: center; writing-mode: lr-tb; text-anchor: middle; fill-opacity: 1; fill-rule: nonzero; stroke: none; stroke-width: 0.481394; fill: url(#gradient-18-5);" id="path854"/>
    <path d="M 326.182 1.392 L 359.41 1.392 L 359.41 16.188 L 344.191 16.188 L 344.191 22.449 L 359.156 22.449 L 359.156 36.483 L 344.191 36.483 L 344.191 42.993 L 360 42.993 L 360 57.789 L 326.182 57.789 Z M 353.744 51.025 L 353.744 48.996 L 336.832 48.996 L 336.832 30.48 L 352.9 30.48 L 352.9 28.452 L 336.832 28.452 L 336.832 10.185 L 353.744 10.185 L 353.744 8.156 L 334.633 8.156 L 334.633 51.025 Z" style="font-style: normal; font-weight: normal; font-stretch: normal; font-size: 18.3389px; font-family: Phosphate; font-variant: normal; text-align: center; writing-mode: lr-tb; text-anchor: middle; fill-opacity: 1; fill-rule: nonzero; stroke: none; stroke-width: 0.481394; fill: url(#gradient-18-6);" id="path856"/>
    <path d="M 142.47 102.322 L 132.069 102.322 L 132.069 87.522 L 171.471 87.522 L 171.471 102.322 L 161.069 102.322 L 161.069 143.918 L 142.47 143.918 Z M 152.872 137.154 L 152.872 96.319 L 164.96 96.319 L 164.96 94.286 L 138.579 94.286 L 138.579 96.319 L 150.672 96.319 L 150.672 137.154 Z" style="font-style: normal; font-weight: normal; font-stretch: normal; font-size: 18.3389px; font-family: Phosphate; font-variant: normal; text-align: center; writing-mode: lr-tb; text-anchor: middle; fill-opacity: 1; fill-rule: nonzero; stroke: none; stroke-width: 0.481394; fill: url(#gradient-18-7);" id="path858"/>
    <path d="M 170.834 115.761 C 170.834 111.704 171.595 107.873 173.117 104.263 C 174.698 100.657 176.81 97.527 179.461 94.88 C 182.167 92.174 185.321 90.058 188.931 88.536 C 192.536 86.959 196.367 86.171 200.429 86.171 C 204.487 86.171 208.318 86.959 211.928 88.536 C 215.533 90.058 218.664 92.174 221.31 94.88 C 224.017 97.527 226.133 100.657 227.655 104.263 C 229.231 107.873 230.02 111.704 230.02 115.761 C 230.02 119.823 229.231 123.655 227.655 127.265 C 226.133 130.87 224.017 134.028 221.31 136.73 C 218.664 139.381 215.533 141.497 211.928 143.074 C 208.318 144.596 204.487 145.357 200.429 145.357 C 196.367 145.357 192.536 144.596 188.931 143.074 C 185.321 141.497 182.167 139.381 179.461 136.73 C 176.81 134.028 174.698 130.87 173.117 127.265 C 171.595 123.655 170.834 119.823 170.834 115.761 Z M 178.783 115.761 C 178.783 118.749 179.345 121.571 180.475 124.217 C 181.6 126.813 183.149 129.095 185.122 131.068 C 187.096 133.042 189.378 134.591 191.974 135.716 C 194.62 136.845 197.442 137.408 200.429 137.408 C 203.417 137.408 206.206 136.845 208.797 135.716 C 211.449 134.591 213.758 133.042 215.732 131.068 C 217.705 129.095 219.254 126.813 220.384 124.217 C 221.509 121.571 222.071 118.749 222.071 115.761 C 222.071 112.774 221.509 109.984 220.384 107.393 C 219.254 104.742 217.705 102.432 215.732 100.459 C 213.758 98.486 211.449 96.937 208.797 95.807 C 206.206 94.682 203.417 94.12 200.429 94.12 C 197.442 94.12 194.62 94.682 191.974 95.807 C 189.378 96.937 187.096 98.486 185.122 100.459 C 183.149 102.432 181.6 104.742 180.475 107.393 C 179.345 109.984 178.783 112.774 178.783 115.761 Z M 188.589 115.761 C 188.589 117.398 188.903 118.947 189.521 120.414 C 190.139 121.824 190.987 123.065 192.057 124.134 C 193.126 125.204 194.366 126.052 195.777 126.67 C 197.243 127.292 198.793 127.601 200.429 127.601 C 202.061 127.601 203.583 127.292 204.994 126.67 C 206.46 126.052 207.728 125.204 208.797 124.134 C 209.872 123.065 210.715 121.824 211.333 120.414 C 211.956 118.947 212.265 117.398 212.265 115.761 C 212.265 114.129 211.956 112.608 211.333 111.197 C 210.715 109.731 209.872 108.463 208.797 107.393 C 207.728 106.324 206.46 105.475 204.994 104.858 C 203.583 104.235 202.061 103.926 200.429 103.926 C 198.793 103.926 197.243 104.235 195.777 104.858 C 194.366 105.475 193.126 106.324 192.057 107.393 C 190.987 108.463 190.139 109.731 189.521 111.197 C 188.903 112.608 188.589 114.129 188.589 115.761 Z M 200.429 135.209 C 197.723 135.209 195.187 134.702 192.817 133.687 C 190.507 132.673 188.451 131.294 186.644 129.547 C 184.896 127.74 183.518 125.683 182.504 123.373 C 181.489 121.004 180.982 118.468 180.982 115.761 C 180.982 113.06 181.489 110.552 182.504 108.237 C 183.518 105.872 184.896 103.816 186.644 102.068 C 188.451 100.261 190.507 98.855 192.817 97.84 C 195.187 96.826 197.723 96.319 200.429 96.319 C 203.136 96.319 205.644 96.826 207.954 97.84 C 210.319 98.855 212.38 100.261 214.127 102.068 C 215.93 103.816 217.336 105.872 218.355 108.237 C 219.369 110.552 219.877 113.06 219.877 115.761 C 219.877 118.468 219.369 121.004 218.355 123.373 C 217.336 125.683 215.93 127.74 214.127 129.547 C 212.38 131.294 210.319 132.673 207.954 133.687 C 205.644 134.702 203.136 135.209 200.429 135.209 Z" style="font-style: normal; font-weight: normal; font-stretch: normal; font-size: 18.3389px; font-family: Phosphate; font-variant: normal; text-align: center; writing-mode: lr-tb; text-anchor: middle; fill-opacity: 1; fill-rule: nonzero; stroke: none; stroke-width: 0.481394; fill: url(#gradient-18-8);" id="path860"/>
  </g>
</svg>